<svg width="25" height="24" viewBox="0 0 25 24" fill="none" xmlns="http://www.w3.org/2000/svg">
<path d="M22.5 12C22.5 17.5228 18.0228 22 12.5 22M22.5 12C22.5 6.47715 18.0228 2 12.5 2M22.5 12H2.5M12.5 22C6.97715 22 2.5 17.5228 2.5 12M12.5 22C15.0013 19.2616 16.4228 15.708 16.5 12C16.4228 8.29203 15.0013 4.73835 12.5 2M12.5 22C9.99872 19.2616 8.57725 15.708 8.5 12C8.57725 8.29203 9.99872 4.73835 12.5 2M2.5 12C2.5 6.47715 6.97715 2 12.5 2" stroke="black" stroke-width="2" stroke-linecap="round" stroke-linejoin="round"/>
</svg>
