<svg width="98" height="34" viewBox="0 0 98 34" fill="none" xmlns="http://www.w3.org/2000/svg">
<path d="M0.472344 24L3.27234 10H6.53234L12.1923 19.36L10.8323 19.32L12.6923 10H16.5723L13.7723 24H10.5123L4.87234 14.64L6.21234 14.68L4.35234 24H0.472344ZM16.5856 24L19.3856 10H23.3456L20.5456 24H16.5856ZM31.003 24.28C29.5763 24.28 28.3296 24.02 27.263 23.5C26.2096 22.98 25.3963 22.26 24.823 21.34C24.2496 20.4067 23.963 19.3333 23.963 18.12C23.963 16.9067 24.1763 15.7867 24.603 14.76C25.0296 13.7333 25.6296 12.8467 26.403 12.1C27.1763 11.34 28.0963 10.7533 29.163 10.34C30.243 9.92667 31.4363 9.72 32.743 9.72C34.0363 9.72 35.183 9.94667 36.183 10.4C37.183 10.8533 37.9296 11.5067 38.423 12.36L35.563 14.64C35.243 14.1067 34.823 13.7 34.303 13.42C33.7963 13.14 33.1896 13 32.483 13C31.803 13 31.183 13.12 30.623 13.36C30.0763 13.6 29.603 13.94 29.203 14.38C28.803 14.82 28.4963 15.34 28.283 15.94C28.0696 16.5267 27.963 17.1667 27.963 17.86C27.963 18.4867 28.0963 19.04 28.363 19.52C28.643 19.9867 29.0363 20.3533 29.543 20.62C30.063 20.8733 30.6763 21 31.383 21C32.0096 21 32.6096 20.8733 33.183 20.62C33.7696 20.3667 34.3096 19.9533 34.803 19.38L37.143 21.68C36.3563 22.6267 35.4496 23.3 34.423 23.7C33.3963 24.0867 32.2563 24.28 31.003 24.28ZM42.3086 20.96L42.8886 16.44L50.0086 10H54.6686L47.3686 16.52L44.7286 18.78L42.3086 20.96ZM38.1286 24L40.9286 10H44.8286L42.0286 24H38.1286ZM47.7486 24L44.0486 18.22L46.9286 15.56L52.1686 24H47.7486Z" fill="black"/>
<rect x="58" width="40" height="34" rx="5" fill="#0243E7"/>
<path d="M63.9349 24V10H68.6549V20.34H74.9749V24H63.9349ZM78.4724 24V17.86L79.5524 20.68L73.1924 10H78.1724L82.4724 17.3H79.5724L83.9124 10H88.4724L82.1524 20.68L83.1924 17.86V24H78.4724ZM90.1709 24.2C89.4242 24.2 88.7975 23.96 88.2909 23.48C87.7842 22.9867 87.5309 22.36 87.5309 21.6C87.5309 20.8267 87.7842 20.2067 88.2909 19.74C88.7975 19.2733 89.4242 19.04 90.1709 19.04C90.9175 19.04 91.5442 19.2733 92.0509 19.74C92.5575 20.2067 92.8109 20.8267 92.8109 21.6C92.8109 22.36 92.5575 22.9867 92.0509 23.48C91.5442 23.96 90.9175 24.2 90.1709 24.2Z" fill="white"/>
</svg>
