<svg width="200" height="135" viewBox="0 0 200 135" fill="none" xmlns="http://www.w3.org/2000/svg">
<rect width="200" height="135" rx="10" fill="white"/>
<path d="M60.264 90.6634H68.64V93.3034H60.264V90.6634ZM60.528 99.7354H57.408V82.9354H69.672V85.5514H60.528V99.7354ZM78.0737 99.9034C76.6497 99.9034 75.4017 99.6234 74.3297 99.0634C73.2737 98.4874 72.4497 97.7034 71.8577 96.7114C71.2817 95.7194 70.9937 94.5914 70.9937 93.3274C70.9937 92.0474 71.2737 90.9194 71.8337 89.9434C72.4097 88.9514 73.1937 88.1754 74.1857 87.6154C75.1937 87.0554 76.3377 86.7754 77.6177 86.7754C78.8657 86.7754 79.9777 87.0474 80.9537 87.5914C81.9297 88.1354 82.6977 88.9034 83.2577 89.8954C83.8177 90.8874 84.0977 92.0554 84.0977 93.3994C84.0977 93.5274 84.0897 93.6714 84.0737 93.8314C84.0737 93.9914 84.0657 94.1434 84.0497 94.2874H73.3697V92.2954H82.4657L81.2897 92.9194C81.3057 92.1834 81.1537 91.5354 80.8337 90.9754C80.5137 90.4154 80.0737 89.9754 79.5137 89.6554C78.9697 89.3354 78.3377 89.1754 77.6177 89.1754C76.8817 89.1754 76.2337 89.3354 75.6737 89.6554C75.1297 89.9754 74.6977 90.4234 74.3777 90.9994C74.0737 91.5594 73.9217 92.2234 73.9217 92.9914V93.4714C73.9217 94.2394 74.0977 94.9194 74.4497 95.5114C74.8017 96.1034 75.2977 96.5594 75.9377 96.8794C76.5777 97.1994 77.3137 97.3594 78.1457 97.3594C78.8657 97.3594 79.5137 97.2474 80.0897 97.0234C80.6657 96.7994 81.1777 96.4474 81.6257 95.9674L83.2337 97.8154C82.6577 98.4874 81.9297 99.0074 81.0497 99.3754C80.1857 99.7274 79.1937 99.9034 78.0737 99.9034ZM103.155 86.7754C104.179 86.7754 105.083 86.9754 105.867 87.3754C106.667 87.7754 107.291 88.3914 107.739 89.2234C108.187 90.0394 108.411 91.0954 108.411 92.3914V99.7354H105.411V92.7754C105.411 91.6394 105.163 90.7914 104.667 90.2314C104.171 89.6714 103.459 89.3914 102.531 89.3914C101.875 89.3914 101.291 89.5354 100.779 89.8234C100.283 90.1114 99.8914 90.5354 99.6034 91.0954C99.3314 91.6554 99.1954 92.3674 99.1954 93.2314V99.7354H96.1954V92.7754C96.1954 91.6394 95.9474 90.7914 95.4514 90.2314C94.9554 89.6714 94.2434 89.3914 93.3154 89.3914C92.6594 89.3914 92.0754 89.5354 91.5634 89.8234C91.0674 90.1114 90.6754 90.5354 90.3874 91.0954C90.1154 91.6554 89.9794 92.3674 89.9794 93.2314V99.7354H86.9794V86.9194H89.8354V90.3274L89.3314 89.3194C89.7634 88.4874 90.3874 87.8554 91.2034 87.4234C92.0354 86.9914 92.9794 86.7754 94.0354 86.7754C95.2354 86.7754 96.2754 87.0714 97.1554 87.6634C98.0514 88.2554 98.6434 89.1514 98.9314 90.3514L97.7554 89.9434C98.1714 88.9834 98.8594 88.2154 99.8194 87.6394C100.779 87.0634 101.891 86.7754 103.155 86.7754ZM120.141 99.7354V97.1434L119.973 96.5914V92.0554C119.973 91.1754 119.709 90.4954 119.181 90.0154C118.653 89.5194 117.853 89.2714 116.781 89.2714C116.061 89.2714 115.349 89.3834 114.645 89.6074C113.957 89.8314 113.373 90.1434 112.893 90.5434L111.717 88.3594C112.405 87.8314 113.221 87.4394 114.165 87.1834C115.125 86.9114 116.117 86.7754 117.141 86.7754C118.997 86.7754 120.429 87.2234 121.437 88.1194C122.461 88.9994 122.973 90.3674 122.973 92.2234V99.7354H120.141ZM116.109 99.9034C115.149 99.9034 114.309 99.7434 113.589 99.4234C112.869 99.0874 112.309 98.6314 111.909 98.0554C111.525 97.4634 111.333 96.7994 111.333 96.0634C111.333 95.3434 111.501 94.6954 111.837 94.1194C112.189 93.5434 112.757 93.0874 113.541 92.7514C114.325 92.4154 115.365 92.2474 116.661 92.2474H120.381V94.2394H116.877C115.853 94.2394 115.165 94.4074 114.813 94.7434C114.461 95.0634 114.285 95.4634 114.285 95.9434C114.285 96.4874 114.501 96.9194 114.933 97.2394C115.365 97.5594 115.965 97.7194 116.733 97.7194C117.469 97.7194 118.125 97.5514 118.701 97.2154C119.293 96.8794 119.717 96.3834 119.973 95.7274L120.477 97.5274C120.189 98.2794 119.669 98.8634 118.917 99.2794C118.181 99.6954 117.245 99.9034 116.109 99.9034ZM126.823 99.7354V81.9274H129.823V99.7354H126.823ZM139.785 99.9034C138.361 99.9034 137.113 99.6234 136.041 99.0634C134.985 98.4874 134.161 97.7034 133.569 96.7114C132.993 95.7194 132.705 94.5914 132.705 93.3274C132.705 92.0474 132.985 90.9194 133.545 89.9434C134.121 88.9514 134.905 88.1754 135.897 87.6154C136.905 87.0554 138.049 86.7754 139.329 86.7754C140.577 86.7754 141.689 87.0474 142.665 87.5914C143.641 88.1354 144.409 88.9034 144.969 89.8954C145.529 90.8874 145.809 92.0554 145.809 93.3994C145.809 93.5274 145.801 93.6714 145.785 93.8314C145.785 93.9914 145.777 94.1434 145.761 94.2874H135.081V92.2954H144.177L143.001 92.9194C143.017 92.1834 142.865 91.5354 142.545 90.9754C142.225 90.4154 141.785 89.9754 141.225 89.6554C140.681 89.3354 140.049 89.1754 139.329 89.1754C138.593 89.1754 137.945 89.3354 137.385 89.6554C136.841 89.9754 136.409 90.4234 136.089 90.9994C135.785 91.5594 135.633 92.2234 135.633 92.9914V93.4714C135.633 94.2394 135.809 94.9194 136.161 95.5114C136.513 96.1034 137.009 96.5594 137.649 96.8794C138.289 97.1994 139.025 97.3594 139.857 97.3594C140.577 97.3594 141.225 97.2474 141.801 97.0234C142.377 96.7994 142.889 96.4474 143.337 95.9674L144.945 97.8154C144.369 98.4874 143.641 99.0074 142.761 99.3754C141.897 99.7274 140.905 99.9034 139.785 99.9034Z" fill="black"/>
<path d="M97.0763 67.5H109.639M103.358 56.9267V73.844M103.358 56.9267C109.14 56.9267 113.827 52.1929 113.827 46.3534C113.827 40.5139 109.14 35.7801 103.358 35.7801C97.5758 35.7801 92.8887 40.5139 92.8887 46.3534C92.8887 52.1929 97.5758 56.9267 103.358 56.9267Z" stroke="#FF00CC" stroke-width="5" stroke-linecap="round" stroke-linejoin="round"/>
</svg>
