<svg width="440" height="55" viewBox="0 0 440 55" fill="none" xmlns="http://www.w3.org/2000/svg">
<rect width="440" height="55" rx="10" fill="white"/>
<path d="M174 37.5H184M179 29.1667V42.5M179 29.1667C183.602 29.1667 187.333 25.4357 187.333 20.8333C187.333 16.231 183.602 12.5 179 12.5C174.398 12.5 170.667 16.231 170.667 20.8333C170.667 25.4357 174.398 29.1667 179 29.1667Z" stroke="#FF00CC" stroke-width="5" stroke-linecap="round" stroke-linejoin="round"/>
<path d="M208.606 26.94H215.586V29.14H208.606V26.94ZM208.826 34.5H206.226V20.5H216.446V22.68H208.826V34.5ZM223.447 34.64C222.26 34.64 221.22 34.4067 220.327 33.94C219.447 33.46 218.76 32.8067 218.267 31.98C217.787 31.1533 217.547 30.2133 217.547 29.16C217.547 28.0933 217.78 27.1533 218.247 26.34C218.727 25.5133 219.38 24.8667 220.207 24.4C221.047 23.9333 222 23.7 223.067 23.7C224.107 23.7 225.034 23.9267 225.847 24.38C226.66 24.8333 227.3 25.4733 227.767 26.3C228.234 27.1267 228.467 28.1 228.467 29.22C228.467 29.3267 228.46 29.4467 228.447 29.58C228.447 29.7133 228.44 29.84 228.427 29.96H219.527V28.3H227.107L226.127 28.82C226.14 28.2067 226.014 27.6667 225.747 27.2C225.48 26.7333 225.114 26.3667 224.647 26.1C224.194 25.8333 223.667 25.7 223.067 25.7C222.454 25.7 221.914 25.8333 221.447 26.1C220.994 26.3667 220.634 26.74 220.367 27.22C220.114 27.6867 219.987 28.24 219.987 28.88V29.28C219.987 29.92 220.134 30.4867 220.427 30.98C220.72 31.4733 221.134 31.8533 221.667 32.12C222.2 32.3867 222.814 32.52 223.507 32.52C224.107 32.52 224.647 32.4267 225.127 32.24C225.607 32.0533 226.034 31.76 226.407 31.36L227.747 32.9C227.267 33.46 226.66 33.8933 225.927 34.2C225.207 34.4933 224.38 34.64 223.447 34.64ZM244.349 23.7C245.202 23.7 245.955 23.8667 246.609 24.2C247.275 24.5333 247.795 25.0467 248.169 25.74C248.542 26.42 248.729 27.3 248.729 28.38V34.5H246.229V28.7C246.229 27.7533 246.022 27.0467 245.609 26.58C245.195 26.1133 244.602 25.88 243.829 25.88C243.282 25.88 242.795 26 242.369 26.24C241.955 26.48 241.629 26.8333 241.389 27.3C241.162 27.7667 241.049 28.36 241.049 29.08V34.5H238.549V28.7C238.549 27.7533 238.342 27.0467 237.929 26.58C237.515 26.1133 236.922 25.88 236.149 25.88C235.602 25.88 235.115 26 234.689 26.24C234.275 26.48 233.949 26.8333 233.709 27.3C233.482 27.7667 233.369 28.36 233.369 29.08V34.5H230.869V23.82H233.249V26.66L232.829 25.82C233.189 25.1267 233.709 24.6 234.389 24.24C235.082 23.88 235.869 23.7 236.749 23.7C237.749 23.7 238.615 23.9467 239.349 24.44C240.095 24.9333 240.589 25.68 240.829 26.68L239.849 26.34C240.195 25.54 240.769 24.9 241.569 24.42C242.369 23.94 243.295 23.7 244.349 23.7ZM258.503 34.5V32.34L258.363 31.88V28.1C258.363 27.3667 258.143 26.8 257.703 26.4C257.263 25.9867 256.597 25.78 255.703 25.78C255.103 25.78 254.51 25.8733 253.923 26.06C253.35 26.2467 252.863 26.5067 252.463 26.84L251.483 25.02C252.057 24.58 252.737 24.2533 253.523 24.04C254.323 23.8133 255.15 23.7 256.003 23.7C257.55 23.7 258.743 24.0733 259.583 24.82C260.437 25.5533 260.863 26.6933 260.863 28.24V34.5H258.503ZM255.143 34.64C254.343 34.64 253.643 34.5067 253.043 34.24C252.443 33.96 251.977 33.58 251.643 33.1C251.323 32.6067 251.163 32.0533 251.163 31.44C251.163 30.84 251.303 30.3 251.583 29.82C251.877 29.34 252.35 28.96 253.003 28.68C253.657 28.4 254.523 28.26 255.603 28.26H258.703V29.92H255.783C254.93 29.92 254.357 30.06 254.063 30.34C253.77 30.6067 253.623 30.94 253.623 31.34C253.623 31.7933 253.803 32.1533 254.163 32.42C254.523 32.6867 255.023 32.82 255.663 32.82C256.277 32.82 256.823 32.68 257.303 32.4C257.797 32.12 258.15 31.7067 258.363 31.16L258.783 32.66C258.543 33.2867 258.11 33.7733 257.483 34.12C256.87 34.4667 256.09 34.64 255.143 34.64ZM264.072 34.5V19.66H266.572V34.5H264.072ZM274.873 34.64C273.686 34.64 272.646 34.4067 271.753 33.94C270.873 33.46 270.186 32.8067 269.693 31.98C269.213 31.1533 268.973 30.2133 268.973 29.16C268.973 28.0933 269.206 27.1533 269.673 26.34C270.153 25.5133 270.806 24.8667 271.633 24.4C272.473 23.9333 273.426 23.7 274.493 23.7C275.533 23.7 276.46 23.9267 277.273 24.38C278.086 24.8333 278.726 25.4733 279.193 26.3C279.66 27.1267 279.893 28.1 279.893 29.22C279.893 29.3267 279.886 29.4467 279.873 29.58C279.873 29.7133 279.866 29.84 279.853 29.96H270.953V28.3H278.533L277.553 28.82C277.566 28.2067 277.44 27.6667 277.173 27.2C276.906 26.7333 276.54 26.3667 276.073 26.1C275.62 25.8333 275.093 25.7 274.493 25.7C273.88 25.7 273.34 25.8333 272.873 26.1C272.42 26.3667 272.06 26.74 271.793 27.22C271.54 27.6867 271.413 28.24 271.413 28.88V29.28C271.413 29.92 271.56 30.4867 271.853 30.98C272.146 31.4733 272.56 31.8533 273.093 32.12C273.626 32.3867 274.24 32.52 274.933 32.52C275.533 32.52 276.073 32.4267 276.553 32.24C277.033 32.0533 277.46 31.76 277.833 31.36L279.173 32.9C278.693 33.46 278.086 33.8933 277.353 34.2C276.633 34.4933 275.806 34.64 274.873 34.64Z" fill="black"/>
</svg>
