<svg width="440" height="57" viewBox="0 0 440 57" fill="none" xmlns="http://www.w3.org/2000/svg">
<rect y="1" width="440" height="55" rx="10" fill="white"/>
<g clip-path="url(#clip0_161_102)">
<path d="M193.679 27.3215C190.424 24.0671 185.148 24.0671 181.893 27.3215C178.639 30.5759 178.639 35.8522 181.893 39.1066C185.148 42.361 190.424 42.361 193.679 39.1066C196.933 35.8522 196.933 30.5759 193.679 27.3215ZM193.679 27.3215L203.107 17.8934M203.107 17.8934L203.107 27.3215M203.107 17.8934L193.679 17.8934" stroke="#0243E7" stroke-opacity="0.99" stroke-width="5" stroke-linecap="round" stroke-linejoin="round"/>
</g>
<path d="M227.928 35.5V21.5H230.068L236.188 31.72H235.068L241.088 21.5H243.228L243.248 35.5H240.788L240.768 25.36H241.288L236.168 33.9H235.008L229.808 25.36H230.408V35.5H227.928ZM253.37 35.5V33.34L253.23 32.88V29.1C253.23 28.3667 253.01 27.8 252.57 27.4C252.13 26.9867 251.463 26.78 250.57 26.78C249.97 26.78 249.376 26.8733 248.79 27.06C248.216 27.2467 247.73 27.5067 247.33 27.84L246.35 26.02C246.923 25.58 247.603 25.2533 248.39 25.04C249.19 24.8133 250.016 24.7 250.87 24.7C252.416 24.7 253.61 25.0733 254.45 25.82C255.303 26.5533 255.73 27.6933 255.73 29.24V35.5H253.37ZM250.01 35.64C249.21 35.64 248.51 35.5067 247.91 35.24C247.31 34.96 246.843 34.58 246.51 34.1C246.19 33.6067 246.03 33.0533 246.03 32.44C246.03 31.84 246.17 31.3 246.45 30.82C246.743 30.34 247.216 29.96 247.87 29.68C248.523 29.4 249.39 29.26 250.47 29.26H253.57V30.92H250.65C249.796 30.92 249.223 31.06 248.93 31.34C248.636 31.6067 248.49 31.94 248.49 32.34C248.49 32.7933 248.67 33.1533 249.03 33.42C249.39 33.6867 249.89 33.82 250.53 33.82C251.143 33.82 251.69 33.68 252.17 33.4C252.663 33.12 253.016 32.7067 253.23 32.16L253.65 33.66C253.41 34.2867 252.976 34.7733 252.35 35.12C251.736 35.4667 250.956 35.64 250.01 35.64ZM258.938 35.5V20.66H261.438V35.5H258.938ZM269.739 35.64C268.553 35.64 267.513 35.4067 266.619 34.94C265.739 34.46 265.053 33.8067 264.559 32.98C264.079 32.1533 263.839 31.2133 263.839 30.16C263.839 29.0933 264.073 28.1533 264.539 27.34C265.019 26.5133 265.673 25.8667 266.499 25.4C267.339 24.9333 268.293 24.7 269.359 24.7C270.399 24.7 271.326 24.9267 272.139 25.38C272.953 25.8333 273.593 26.4733 274.059 27.3C274.526 28.1267 274.759 29.1 274.759 30.22C274.759 30.3267 274.753 30.4467 274.739 30.58C274.739 30.7133 274.733 30.84 274.719 30.96H265.819V29.3H273.399L272.419 29.82C272.433 29.2067 272.306 28.6667 272.039 28.2C271.773 27.7333 271.406 27.3667 270.939 27.1C270.486 26.8333 269.959 26.7 269.359 26.7C268.746 26.7 268.206 26.8333 267.739 27.1C267.286 27.3667 266.926 27.74 266.659 28.22C266.406 28.6867 266.279 29.24 266.279 29.88V30.28C266.279 30.92 266.426 31.4867 266.719 31.98C267.013 32.4733 267.426 32.8533 267.959 33.12C268.493 33.3867 269.106 33.52 269.799 33.52C270.399 33.52 270.939 33.4267 271.419 33.24C271.899 33.0533 272.326 32.76 272.699 32.36L274.039 33.9C273.559 34.46 272.953 34.8933 272.219 35.2C271.499 35.4933 270.673 35.64 269.739 35.64Z" fill="black"/>
<defs>
<clipPath id="clip0_161_102">
<rect width="40" height="40" fill="white" transform="translate(192.5 0.215729) rotate(45)"/>
</clipPath>
</defs>
</svg>
