<svg width="200" height="135" viewBox="0 0 200 135" fill="none" xmlns="http://www.w3.org/2000/svg">
<rect width="200" height="135" rx="10" fill="white"/>
<path d="M72.9043 99.7354V82.9354H75.4723L82.8163 95.1994H81.4723L88.6963 82.9354H91.2643L91.2883 99.7354H88.3363L88.3123 87.5674H88.9363L82.7923 97.8154H81.4003L75.1603 87.5674H75.8803V99.7354H72.9043ZM103.434 99.7354V97.1434L103.266 96.5914V92.0554C103.266 91.1754 103.002 90.4954 102.474 90.0154C101.946 89.5194 101.146 89.2714 100.074 89.2714C99.3541 89.2714 98.6421 89.3834 97.9381 89.6074C97.2501 89.8314 96.6661 90.1434 96.1861 90.5434L95.0101 88.3594C95.6981 87.8314 96.5141 87.4394 97.4581 87.1834C98.4181 86.9114 99.4101 86.7754 100.434 86.7754C102.29 86.7754 103.722 87.2234 104.73 88.1194C105.754 88.9994 106.266 90.3674 106.266 92.2234V99.7354H103.434ZM99.4021 99.9034C98.4421 99.9034 97.6021 99.7434 96.8821 99.4234C96.1621 99.0874 95.6021 98.6314 95.2021 98.0554C94.8181 97.4634 94.6261 96.7994 94.6261 96.0634C94.6261 95.3434 94.7941 94.6954 95.1301 94.1194C95.4821 93.5434 96.0501 93.0874 96.8341 92.7514C97.6181 92.4154 98.6581 92.2474 99.9541 92.2474H103.674V94.2394H100.17C99.1461 94.2394 98.4581 94.4074 98.1061 94.7434C97.7541 95.0634 97.5781 95.4634 97.5781 95.9434C97.5781 96.4874 97.7941 96.9194 98.2261 97.2394C98.6581 97.5594 99.2581 97.7194 100.026 97.7194C100.762 97.7194 101.418 97.5514 101.994 97.2154C102.586 96.8794 103.01 96.3834 103.266 95.7274L103.77 97.5274C103.482 98.2794 102.962 98.8634 102.21 99.2794C101.474 99.6954 100.538 99.9034 99.4021 99.9034ZM110.116 99.7354V81.9274H113.116V99.7354H110.116ZM123.078 99.9034C121.654 99.9034 120.406 99.6234 119.334 99.0634C118.278 98.4874 117.454 97.7034 116.862 96.7114C116.286 95.7194 115.998 94.5914 115.998 93.3274C115.998 92.0474 116.278 90.9194 116.838 89.9434C117.414 88.9514 118.198 88.1754 119.19 87.6154C120.198 87.0554 121.342 86.7754 122.622 86.7754C123.87 86.7754 124.982 87.0474 125.958 87.5914C126.934 88.1354 127.702 88.9034 128.262 89.8954C128.822 90.8874 129.102 92.0554 129.102 93.3994C129.102 93.5274 129.094 93.6714 129.078 93.8314C129.078 93.9914 129.07 94.1434 129.054 94.2874H118.374V92.2954H127.47L126.294 92.9194C126.31 92.1834 126.158 91.5354 125.838 90.9754C125.518 90.4154 125.078 89.9754 124.518 89.6554C123.974 89.3354 123.342 89.1754 122.622 89.1754C121.886 89.1754 121.238 89.3354 120.678 89.6554C120.134 89.9754 119.702 90.4234 119.382 90.9994C119.078 91.5594 118.926 92.2234 118.926 92.9914V93.4714C118.926 94.2394 119.102 94.9194 119.454 95.5114C119.806 96.1034 120.302 96.5594 120.942 96.8794C121.582 97.1994 122.318 97.3594 123.15 97.3594C123.87 97.3594 124.518 97.2474 125.094 97.0234C125.67 96.7994 126.182 96.4474 126.63 95.9674L128.238 97.8154C127.662 98.4874 126.934 99.0074 126.054 99.3754C125.19 99.7274 124.198 99.9034 123.078 99.9034Z" fill="black"/>
<g clip-path="url(#clip0_93_1400)">
<path d="M102.34 52.6624C98.2517 48.5333 91.6231 48.5333 87.5347 52.6624C83.4463 56.7916 83.4463 63.4862 87.5347 67.6153C91.6231 71.7445 98.2517 71.7445 102.34 67.6153C106.429 63.4862 106.429 56.7916 102.34 52.6624ZM102.34 52.6624L114.184 40.7001M114.184 40.7001L114.184 52.6624M114.184 40.7001L102.34 40.7001" stroke="#0243E7" stroke-opacity="0.99" stroke-width="5" stroke-linecap="round" stroke-linejoin="round"/>
</g>
<defs>
<clipPath id="clip0_93_1400">
<rect width="50.5022" height="50.5022" fill="white" transform="matrix(0.703593 0.710603 -0.703593 0.710603 100.86 18.2707)"/>
</clipPath>
</defs>
</svg>
